<svg xmlns="http://www.w3.org/2000/svg" viewBox="0 0 1920 2183.6"><style>.st5{fill:#a25d51}.st6{fill:#9b6154}.st7{fill:#b27461;stroke:#96584a;stroke-width:2;stroke-miterlimit:10}.st8{fill:#b97d6b}.st9{fill:#a0514a}.st13{fill:#a05149}.st16{fill:#73433f}.st17{fill:#915654}.st20{fill:#9b4244}.st29{fill:#7c403c}.st30{fill:#73423f}.st32{fill:#b27461}.st36{fill:#7a4e49}.st37{fill:#854d49}.st38{fill:#8e5b55}.st39{fill:#5b3330}.st40{fill:#92564b}</style><g id="back"><ellipse id="XMLID_32_" cx="958.8" cy="288.4" rx="34.8" ry="35.3" fill="#fffffd"/><path id="XMLID_31_" fill="#967d6b" d="M801 642.3l159-36 96.6 25.1 78.9-28.8 324.9 76.8 211.8-90 99.9 20.7L1434.6 745z"/><path id="XMLID_30_" fill="#967d6a" d="M239.4 615.7L64.5 535-1 559.5l.5 64.8"/><path id="XMLID_28_" fill="#a86753" d="M-1 617.8h172l85.9-13.3 420.3 47.9 197.6-24.1 49.3 14 40.2-11.4 48 8.4 74.6-17.5 104.9 25 36.2-4.5v-19.5l80.7 20h98.3l163-38.3 315.6 75L-.7 911.1"/><path id="XMLID_55_" d="M1003.2 644.7c-53.5 17.7-107.1 35.3-160.6 53l-174.7-23.4c46.5 3.2 100.6 3.9 160.4-1 66.8-5.3 125.7-16.4 174.9-28.6z" fill="#9a6154"/><path id="XMLID_48_" class="st5" d="M654.4 684c129.5 4 234.3 2.9 304.7 1.2 177-4.3 435.9-37.9 435.8-38.3l-141 37h82.2l-356.4 40.8L668 695.8l84.5-4.7-98.1-7.1z"/><path id="XMLID_44_" class="st6" d="M320.1 654.7c-5.2-2.4-92.9-41.6-115.7-21.5-9.8 8.7-10.4 18-10.4 18-.6 10.4 6.9 18.1 9 20.1 7.9 5.3 21.8 12.8 40.2 14.5 42.7 4.1 72.5-26.5 76.9-31.1z"/><path id="XMLID_29_" class="st7" d="M266.4 684.8L.5 636.5l-1 172.7z"/><path id="XMLID_25_" class="st7" d="M551.5 727.1l774.9-29.5-582.1 121.8-192.8-92.3"/><path id="XMLID_46_" class="st6" d="M649.1 667.2l-167.9 57.4-70.9-45.2z"/><path id="XMLID_27_" class="st8" d="M563.1 745.9c3.6-5.8 9.1-13.2 17.6-19.9 18.9-15.1 39.7-16.9 48.1-17.2 189.9 20.3 379.8 40.6 569.7 61l-530.6 33.8-104.8-57.7z"/><path id="XMLID_24_" class="st7" d="M685.6 803.6l349.5-47.7 355.5-76.5 261 46.5L1187.1 939z"/><path id="XMLID_23_" class="st5" d="M1279.7 920.5c-67-14.2-134.1-28.4-201.1-42.6 41.3-15.9 61.7-31 61.2-45.4-.9-24.2-60.8-46.3-179.7-66.3 143.5-28.9 287-57.8 430.6-86.7l217.2 43.7c-109.5 65.7-218.9 131.5-328.2 197.3z"/><path id="XMLID_26_" class="st8" d="M1310.8 697.7l79.8-18.3c34.9 7.6 52.7 16.6 53.6 26.9 1.4 17.3-44.8 38.5-138.7 63.5 27-37.7 34.9-45.2 24.7-58.1-1.8-2.2.1-2.9-19.4-14z"/><path id="XMLID_19_" class="st7" d="M1796.2 589.5c101.3 22.6 171.1 38.2 272.5 60.9l-65.7 380.4-856.2-121L1488.6 745l198.2-143.6c8.9-5.5 23.3-12.8 42.3-16.4 15-2.8 27.9-2.4 37.2-1.4 10 2 20 4 29.9 5.9z"/><path id="XMLID_22_" class="st9" d="M2068.7 650.4c-106.3-22.7-212.5-45.3-318.8-68 6.2 3.9 14.4 10.1 20.8 20 11.7 18.1 10.3 37.4 0 92.1-16.5 87.9-25 103.2-31.2 113-13.1 20.3-28 34.1-38.5 42.5-34.3 29.7-68.6 59.3-103 89l404.9 91.8 65.8-380.4z"/><path id="XMLID_20_" class="st8" d="M1488.7 745.1c5.6 9.7 11.8 22.9 15.9 39.3 7.1 28.6 4.4 53 1.6 67.4-5.8 44.2-11.7 88.3-17.5 132.5l154-143.3c4.5-6.1 73.3-102.6 35.2-166.3-4-6.7-9.6-13.7-17.5-20.3-12.1-2.5-24.1-5-36.2-7.6l-135.5 98.3z"/></g><g id="foreground"><path id="XMLID_21_" fill="#b27461" stroke="#754c24" stroke-width="2" stroke-miterlimit="10" d="M1402.7 939L1918 828.8v164z"/><path id="XMLID_18_" class="st7" d="M7.6 768.3c105.3-40.6 210.6-81.3 315.9-121.9 9-2.8 27.2-7.1 47.9-.8 6.5 2 12 4.6 16.5 7.3 39.8 19.4 79.5 38.7 119.3 58.1l561.2 205.8L363.1 939 7.6 768.3z"/><path id="XMLID_16_" class="st8" d="M314.3 753.8c-28.4-8.5-47.7-24.8-47.9-41.5 0-2.9.5-6.5 2.4-10.5 7.8-7.8 17.1-15.9 27.9-23.8 25.6-18.7 50.7-24.8 70.2-31.1l139.7 67.9-142.1 55.1-50.2-16.1z"/><path id="XMLID_17_" class="st9" d="M889.1 855.2L517.9 717.1c-33.9-1.5-91.1 1.9-136.5 39.9-4.6 3.8-8.9 7.9-12.8 12 28.7 7.2 56.6 17.2 85.4 24.4 15.9 8.2 25.2 11.8 24.8 20.3-.4 7.9-10.9 13.1-12.8 14.1-46.8 39.7-73 62.1-72.6 62.6h.1c2.2-.9 495.6-35.2 495.6-35.2z"/><path id="XMLID_10_" d="M0 735.4c0 9 399.8 156 399.8 156L0 1000.8" fill="#b27462" stroke="#96584a" stroke-width="3" stroke-miterlimit="10"/><path id="XMLID_15_" fill="#9f4f48" d="M290.9 893.3L-.5 745.9l.5 183 137.4 55.4z"/><path id="XMLID_4_" class="st7" d="M78.9 961.9c45.5.6 157.6-77.9 511.5-137 106.3-17.8 254.1 12.4 377.7 29.7 421 59 860 128.6 951.8 129.7l-1437.7 258L78.9 961.9z"/><path id="XMLID_7_" class="st13" d="M895.3 1163.2l379.5-107.2c-117.4-19.9-656.9-106.7-717.7 45.8-3.3 8.4-5.3 17.6-5.6 27.9 114.6 11.2 229.2 22.4 343.8 33.5z"/><path id="XMLID_14_" fill="#a0514a" stroke="#b27462" stroke-width="4" stroke-miterlimit="10" d="M-.5 880.1l668.4 359.6-667.4 1.6z"/><path id="XMLID_13_" class="st7" d="M0 1080.5l1863.3 161.3H0z"/><path id="XMLID_6_" class="st7" d="M607.3 1241.3l880-248.5 431.7-39.9v289.4l-527.2 20.6z"/><path id="XMLID_8_" d="M536 1241.8c16.9-6 34.9-11.7 54.1-16.9 46.8-12.6 90.2-19.2 128.4-22.3 160 11.5 320 23.1 480 34.6l-662.5 4.6z" fill="#af6f5d" stroke="#603813" stroke-width="3" stroke-miterlimit="10"/><path id="XMLID_9_" class="st13" d="M710.7 1202.6c85.2-4.1 182.1-3.4 288 6.7 67.7 6.5 130.6 16 188.4 27.1-135.7 1.2-271.4 2.5-407.2 3.7l-69.2-37.5z"/></g><g id="rocks"><path id="XMLID_126_" class="st16" d="M1381.9 1044.8l-67.8 2.2 12.3-16.1 154.1-57.3 61.3 39.9-55 34.4-67.6 4.5c.1-.1.1-.1-37.3-7.6z"/><path id="XMLID_59_" class="st17" d="M331.8 1129.6l-234.5-8.7c-12.5 13.5-12.3 24.6-24.8 38.1.5 11.7 6 12.2 6.5 23.9 20.5 8.7 43 12.1 74.3 17.4 52.5 9 108-2.8 137.7-8.5 21.7-33.2 19-29.1 40.8-62.2z"/><path id="XMLID_42_" class="st17" d="M1799.9 1056.5l32.4 36.6c1.4 2.9 4.4 10.7 2.2 19.8-2.8 11.3-12.6 20.2-25.3 23.1-9.4 5.4-17.4 7.7-23.1 8.8-15.2 3-25-.3-35.1 6.6-4.5 3.1-7.2 7-8.8 9.6-9.3-3.5-23.3-7.6-40.6-8.5-17.3-.9-31.6 1.8-41.2 4.4-19-3.3-39.9-8.2-62-15.4-51.8-16.7-92.9-40.1-123-60.9 108.1-8.1 216.3-16.1 324.5-24.1z"/><path id="XMLID_5_" class="st16" d="M1504.8 992c4.9-7.3 8.1-10.8 15.2-20.3 19.7-26.4 34.1-51.8 44.6-73.8 0 0 .1 0 .3-.1 41.2-12.9 61.4-27 67.2-21 1.4 1.5 2.6 4.7 5.7 9.4.9 1.3 2 2.6 3.7 4 3.2 2.6 4.8 2.4 14.5 5.6 8.6 2.8 19.4 6.2 25.7 11.7 4.6 4 6.1 7.5 8.3 10.8 21.6 9.5 43.2 19 64.8 28.6 2.8 3.2 7 8.3 10.8 15.2 4 7.4 6 13.9 9.7 26.8 3.7 12.8 3.2 13.5 6.3 22.9 2.8 8.6 5.5 15.3 7.9 20.7 7.7 16.9 11.5 19.3 10.2 24-1.7 6-9.3 6.7-29 13-27.8 8.8-28.1 12.2-50.9 17.9-12.3 3-22.5 4.6-29.1 5.4-16.1-2.5-33.3-4.7-51.4-6.2-29.8-2.5-57.5-2.8-82.5-1.9-22.7-2.3-58.7-2-81.5-4.2-4.6-.5-3.1-15.9-7.7-16.4"/><path id="XMLID_12_" d="M164.9 1056.5c7.9-2.1 24.2-5.5 44-.8 17.5 4.1 29.6 12.5 35.9 17.6 15.4 2.8 30.8 5.5 46.2 8.3-24.4 13.1-48.8 26.3-73.2 39.4-7.5 1.4-106 19.6-114.1-2.9-6.5-18.1 47.9-53.3 61.2-61.6z" fill="#9a4244"/><path id="XMLID_11_" d="M117 1145.8c2.4-.2 33.2 14.4 33.2 14.4h55.7c42-10.2 83.9-20.4 125.9-30.6.5-3.6.7-8.9-1.5-14.4-3.6-8.8-11-12.1-22.9-20.6-5.4-3.9-8-5.1-16.4-13.1-13 8.2-30.2 17.2-51.4 24.1-37.8 12.2-71 11.8-92 9.7l-35.4-17.7c-20 17.5-19.6 22.7-14.8 34 4.7 11.5 18.5 14 19.6 14.2z" fill="#73423e"/><path id="XMLID_39_" class="st20" d="M1629 885.4l-42.9 11.9c-1.4.2-9 1.1-14.4 7.9-5.8 7.3-4.4 15.7-4.2 17-2.7 2-5.7 4.7-8.7 8.2-5.6 6.5-8.7 13.1-10.5 17.8-2.8 1.3-11.5 5.8-16.8 15.9-4.5 8.6-4.2 16.7-3.9 20-4.8-1-8.2-.3-10.4.6-10.9 4.1-17.5 20.4-15.2 40.5-8.3 13.5-12.9 22.8-15.6 29.5-.8 2-2.4 6-6.4 8.3-4.4 2.6-9.4 1.9-12.3 1.2 5.1-7.7 12-20.5 14.7-37.5 1.1-7.2 1.2-13.8.9-19.3 2.9-10.5 14.6-19.4 24.8-29.7 1-6.9 6.6-12.3 7.6-19.3.8-5.8-.5-10.2.3-15.9 7.3-7 18-19 25.6-27.4 4.5-5.1 8.8-10.2 12.8-15.1 10-5.6 19.9-11.3 29.9-16.9l14.5-1.4 6.2-5.3 25.5-.8-1.5 9.8z"/><path id="XMLID_43_" class="st16" d="M1596.5 890.7c5.3 1.4 12.8 1.3 13.7-1.3.2-.5.6-2.6-5.4-7.1 2-.3 4-.6 5.9-.9 3.3 1.5 14.2 6.5 16.7 3.4.6-.7 1.1-2.5-1.3-6.9.7.7.7-2 1.6-2.2.4-.1.8.3 1 .5 1.2 1.2 8.8 8.9 19.2 19.6-9.3 1.1-19.4 1.9-30.1 2.3-10.2.4-19.8.3-28.8 0-2.6-1.4-5.2-2.7-7.7-4.1-3.1-.3-8.1-.4-13.9 1.2-7.2 2-12.1 4.4-14.7 6.6 3.9-4.2 7.9-7 11.8-11.2l15.9-4.5 16.1 4.6z"/><path id="XMLID_64_" class="st17" d="M1832.5 1158.4c-.7 1.7-1.8 3.9-3.5 6.2-.9 1.2-8.2 10.8-14.4 8.6-4-1.4-5.4-6.9-5.8-8.4-.3.8-.6 1.6-1 2.4-3.2 4.5-8.6 10-16.5 12.8-10.3 3.6-23.5 1.8-32.5-4.8-4.6-3.3-11-9.8-16.3-12.1-2-.9-5.1-1.7-7.4-2.3h-.7c-4 0-6.2 1.3-6.9 1.7-3.5 1.8-5.6 5.5-5.4 9.4.2 3.7 2.4 7.1 5.7 8.7 2.6.5 5.2-.7 6.1-2.8 1.2-2.6-.2-6.3-3.6-7.6 4.1-.1 7.7 2.2 8.6 5.4.4 1.3.3 2.6-.1 3.7 0 .1-.1.3-.1.4-.8 3.6-5 6.2-8.7 6.4-.2 0-6.8-1.2-9.4-3.6-4.5-4.3-5.9-10.6-4.7-15.7 1.2-4.9 4.4-7.7 5.9-9 5.3-4.7 11.6-5.3 13.2-5.4 7.1-.5 15.8 1.7 23.7 5.9 2.3 1.2 4.6.9 6 1.2.7-.3 1.4-.7 2.2-1-1.6-.8-4.1-2.4-6.2-5.3-1.8-2.5-2.9-6.2-3.2-7.7 2.2-1 4.8-.7 7-1.6 2.5 7.3 5.6 9.7 8.1 10.4.9.3 1.8.4 2.7.6 2.8-1 5.9-2.1 9.2-3-2-1.7-3.5-3.9-3.6-6.3-.1-2.9 2-2.6 4.1-8.7 1-3 1.2-5.1 3.2-6.3.9-.5 2.5-1.1 3.3-.4 1.1.8 1.2 3.8-3.6 14.1.6.8 1.6 2.2 3.4 3.1 1.7.9 4 1.3 5.4.9.5-.1 1-.4 1.2-.7.6-.9-.8-2-1.4-4.8-.5-2.1-.3-4 0-5.1 1.6-.9 5-3.2 7-7.5 1-2 1.4-3.9 1.6-5.3.6-.4 2.7-1.6 3.7-.8 1.4 1.1-.2 5.1-.5 5.9-.7 1.8-2.4 5-6.5 7.8.5 1.4.9 3.1 1.2 5.1.1 1.3.2 2.5.1 3.5.6 0 1.4.1 2.4.4 3.2.9 4.2 2.9 7.1 4.3.6.3 1.3.6 2.2.8.6.2 1.4.3 2.3.3.1 0 .1-.1.2-.1 1.5-.9 3.7-2 6.6-2.7 2.4-.6 4.7-.6 6.6-.5 2.4-.7 3.5-.5 4 .1 1.3 1.3.3 5.2-2 9.4z"/><path id="XMLID_127_" class="st20" d="M1333.3 1046l69.4-67.9 77.8-4.5 2.6 4.9-33.1 18.3-33.5 16.6-34.6 31.4z"/><path id="XMLID_2_" class="st20" d="M1314.1 1047l12.3-16.1 43.9-14.5s13.9-5.3 11.8-9.6c-1.8-3.5-19.7-6-20.5-5.7-1.7.9-43.5 12.3-43.5 12.3l-17 17.4-14.4 5.6-5.2 13.5 32.6-2.9z"/><path id="XMLID_133_" class="st17" d="M1314.2 1219.5l46.3 33.3h34.5l7.7-21.7-7.7-23.7z"/><path id="XMLID_130_" class="st16" d="M1326 1219.9l46.1-4.5 22.9-8v-7.6l-22.7-18H1339l-13 18.5z"/><path id="XMLID_132_" class="st20" d="M1299 1214.6l15.2 5.3 21.4-2.6-3.7-17 12-18.3-33.5 4.3-11.4 16.3z"/></g><g id="lizzie"><path id="XMLID_35_" d="M1536.7 884.8c3.4-2.3 5-6.3 3.9-9.4-1.5-4.3-7-5.2-10.5-4.6-4.2.8-7.7 4.6-8.7 9.6-1.2 6.1 1.4 12.1 5.5 15.5 3.8 3.2 8.2 3.6 10.2 3.8 7.2.7 12.6-2.5 14-3.3 6.1-3.7 12-10.7 16-18.7 1.2-2.3 3.2-3.5 4.2-4.4 11.8-1.2 20.8-4.4 26.9-7.2 7.3-3.3 16.3-7.4 16.2-12.8-.1-5.5-9.9-9.3-12.4-10.3-.7-.3-8.4-3.2-16.8-1.8-13.3 2.2-24.4 13.5-29.2 28.7-.5 3.3-2.4 14.4-10.4 20.2-3.3 2.3-5.9 2.6-6.7 2.7-3.9.6-7.8-1.2-10-4.4-2.1-3.1-2.2-7.1-.4-10.4 1.9-2 4.7-2.4 6.7-1.3 2.5 1.3 3.5 5.1 1.5 8.1z" fill="#2b3c46"/><path id="XMLID_33_" d="M1544.2 891.9s-.1 0 0 0c-.1 0 0 0 0 0 14.7-9.5 17.3-19.8 17.3-19.8 4.5-6.8 12.2-16.1 24.5-21.5 10.2-4.5 19-4.2 19-6.1 0-2.2-12.3-6.6-24-3.2-10.3 3-20.2 12.1-23.9 22.9-1.8 5.3-3.2 14.4-6.2 19.4-1.9 3.1-6.7 8.2-6.7 8.3z" fill="#417055"/><path id="XMLID_36_" d="M1523.2 885.4c3.5-4 5.7-10.7 8.2-11.3 3.6-.8 7.5 2 8.2.9.4-.7-.6-2.2-1.7-3.1-2.8-2.4-7.7-2.1-10.9-.1-3.8 2.6-7.7 9.7-3.8 13.6z" fill="#417255"/><path id="XMLID_37_" d="M1621.4 845.2c-2.5 5-7.3 7.6-11.1 6.6-4.1-1.1-5.6-6-6.1-7.5-1-3.3-1.4-8.7 1.3-11.5 6.6-7 30 3.6 29.4 8.3-.2 1.4-2.7 3.1-13.5 4.1z" fill="#293b44"/><path id="XMLID_38_" d="M1628.3 834.8c-1.7-1-4.2-2.2-7.3-3.2-4-1.1-11.6-3.3-15.5.5-3.5 3.5-2.7 10.7-1.2 11.1 1.1.3 2.1-3.4 5.3-6.1 4.3-3.6 10.8-4 18.7-2.3z" fill="#417355"/><path id="XMLID_40_" d="M1634.8 840.3c-2.3 1.2-6 2.9-10.8 3.5-4.4.6-8.1.2-10.5-.3.5.7 1.3 2.1 1.4 4 .2 4.1-3.2 6.9-4 7.6-2.3 1.9-4.7 2.4-6 2.6-.1 1-.4 3.1-2 4.9-1.3 1.5-4 3.5-5.4 2.6-1.2-.7-1.4-3.4-.1-6.4-.8.7-1.9 1.8-2.9 3.4-2 3.2-4 9.1-1.6 12.7 1.6 2.4 3.2.9 8.5 4.6 2.6 1.8 4.1 3.5 6.4 3.3 1-.1 2.7-.6 3-1.6.4-1.3-1.3-3.8-11.3-9.3 0-1 .1-2.7 1-4.5 1.3-2.4 3.9-4.7 5.3-4 1 .5.6 2.1 1.7 4.7.9 2 2.1 3.4 3 4.2 1.9-.2 6-.3 10.2 2 2 1.1 3.5 2.4 4.5 3.4.7-.1 3.2-.3 3.5-1.6.5-1.7-3.2-4-3.9-4.5-1.7-1-4.9-2.6-10-2.5-.4-1.4-1.1-3.1-2.1-4.9-.6-1.1-1.3-2.1-2-2.9.4-.3 1.1-.9 1.7-1.7 2.1-2.6 1.7-4.8 3.3-7.6.5-.9 1.4-2.2 3-3.5 1.8-.1 4.4-.5 7.2-1.7 4.6-1.8 7.5-4.8 8.9-6.5z" fill="#162128"/><path id="XMLID_41_" d="M1577.8 861.3c.4-.1 2.7-.4 4.6 1.2 2.3 1.9 1.8 5 1.8 5.4-.4 2.4-2.1 3.4-3.3 4.9-1.6 2.1-2.7 5.9-.5 13.2-2.4.5-4.3 2.3-6.7 2.8-.6-1.4-1.9-5-1.9-8.1 0-4 1.4-7.1 2.2-8.5-.2.1-1.7.7-3.3-.1-1.7-.9-2-2.6-2.1-2.8 1.7.6 5.3 1.4 8.9-.1.6-.3 5-2.2 4.6-4.6-.1-1.6-1.9-2.8-4.3-3.3z" fill="#111e26"/></g><g id="foreforeground"><path id="XMLID_102_" fill="#703834" d="M145.2 1762.5l68.1 48.1 69.1 7 102.8 47.9 147 126.2 85 38.1 373.3 54.7 515.4-101.7 129-117.3 54.4-75.9 187.8-147.5 80.9-28.5 8-128.2-1856 111.4z"/><path id="XMLID_123_" class="st29" d="M366.9 1857l105.7 31.8H594l680.9-41 29 24.9 121.8-17.8 95.9-37.3 13.9-40.9 26.1-24 148-45.1 6.2-18 100.7-23.9 141.6-52.1-13.2 76-255.5 100 2.5-24.9-99.6 33.3-37.8 19.5-10.1 31-15.8 16.9-5.6 7.3-65.6 21.4-68.1 8.4-16.7 16.7-124.4 15.1v-10.6l-84.7 15.7-132.4-1.4s-14 6.6-16 6.1-45.5 4.8-45.5 4.8l-4 8.5-5.3 4.5-71.8-6.9-23.8 1.5-22.8-4-22.8 9.4-79.7-4.9-78.7-5.4-39.6 5.9-64.3-10.9-82.1-30.7-107.8-58.9z"/><path id="XMLID_75_" class="st30" d="M-32.2 1475.8l1970.5-70.5 6.6 99.2-395.9 191.3-23.4 19.7-19.7 82.5-207 74.7-74.1-55-77.8 20.8v34.3l-26.3 54.9-233.3-7.8-98.2-15.7-61.6 35.3-16.9-54.4-178.5-58.2-115.1-16.3-24.6-13.9-183.8-28.4-11.7-13.5-93.4-6.6-118.6-40.6z"/><path id="XMLID_89_" fill="#633935" d="M-15 1499.5l117.3 41.5 123.8 17.1 15.6 18.4 118.3 37 126.4 46 23 116.5 42.1 6.7 146 27.9-11.9-99.7 172.7 13.3 168.8 18.6 119.9-2.6v-70.4l179.4-32-8.4 70.5 111.6-55.8 123.1-38.9 15.1-16.8 92.6-40 104.1-43.9 50.5-62.7 151-44.9v-73.5L-15 1412z"/><path id="XMLID_109_" class="st30" d="M102.8 1471.4s89.7 6.1 99.5 9.2 75.9 29.2 75.9 29.2H369l91.2 34 26.2 115.7s174.7 41.8 181.4 35.7c6.7-6.2 0-111.3 0-111.3H772l83.1 24.8 34-3.1 176.4-4.6 81.4-17.4 4-67.7h54.1l100.4-24.4 46.3-9.3-10.8 70.9 40.1-10.8s55.4-7.7 63.2-10.8c7.8-3.1 128.5-58.4 123.6-59.9-4.8-1.6 16.5-13.7 16.5-13.7h92.8l80.3-35.8 78-37.1 111.7-21.5 11.1-123.2-1997.5 77 26.5 124.7 115.6 29.4"/><path id="XMLID_107_" class="st32" d="M89.2 1354.3l-121.5-31.9 16.7-92.6h447.3l-174.4 125.9-75.3-3-53.2 42.8"/><path id="XMLID_110_" class="st32" d="M1789.1 1278c24.4-3.2 55.2-9.8 88.7-23.8 18.3-7.6 34.2-16.1 47.7-24.4-144 0-335.6 22.4-530.5 23-98.5.3-219-21.1-291.8-21.1l394.6 104.1H1619c2.5 4.9 18.4 34.5 49.6 40.2 24.8 4.5 44.4-8.7 60.9-19.9 35.6-24 52.2-58.2 59.6-78.1z"/><path id="XMLID_108_" class="st7" d="M302.1 1282c122.5-88.7 433-79.6 462.1-78.6 128.9 82.2 257.8 164.5 386.7 246.7-29.9 8.4-64.1 16-102 21.2-60.5 8.3-114.5 8.4-158.9 5.3-3.3 4.7-23.8 32.2-59.6 35.8-33.8 3.3-67.6-16-84.8-49l-105.9-24 14.6 112.4H576c-2.6 2.4-19.8 17.6-44.8 14.9-28.5-3.1-42.4-26.8-43.7-29.1-12.4-3.5-24.7-7.1-37.1-10.6l-211.1-79.4c-6.8-13.6-15.3-35.9-12.7-62.2 5.2-52.5 50.8-85.5 75.5-103.4z"/><path id="XMLID_111_" class="st13" d="M764.2 1203.4l608.4 167.2-3.2 29.2c39.4-3.8 88.3-12.5 141.7-31.8 27.5-9.9 51.9-21.1 73.2-32.3-65.7-22.9-136.5-44.4-212.2-63.1-227.8-56.1-435.4-71.4-607.9-69.2z"/><path id="XMLID_54_" fill="#88433d" d="M1150.9 1450.2l7.9-50.3-284.7-125.8z"/><path id="XMLID_113_" d="M1158.8 1399.9c2.5-2.9 6.1-6.6 11-10 6.2-4.3 12.2-6.5 16.4-7.8 60.2-4.2 120.3-8.5 180.5-12.7L960 1208.7l-195.8-5.2 110 70.6c-.1 0-.1 0 284.6 125.8z" fill="#a55b55"/><path id="XMLID_50_" class="st17" d="M1568.7 1330.5l50.3 5.4c45.5 27.4 74.5 26.3 92.7 19.7 36.7-13.1 68.3-61.8 69.1-61.1.1.1-.1.3-.1.4-5.5 6.9-65.1 105-65.1 105l-40.9 68.1c-25.9 37.5-51.8 75-77.6 112.6.5-11 .9-22.1 1.4-33.1 4.9-15.6 9.8-31.3 14.7-46.9 7.7-31.4 10.5-57.6 11.5-75.9 2.3-40.1-3.1-51.9-5.5-56.6-12.9-25-39.5-34.5-50.5-37.6z"/><path id="XMLID_45_" class="st17" d="M745.5 1463.4c2.4 3.3 31.8 42 79.5 39.4 29.6-1.6 49.5-18.2 55.8-24 15.5-2.5 30.9-5 46.4-7.6-7.2 2.3-34.8 11.9-50.5 40.4-7.9 14.5-9.7 28.2-10.1 36.6.1 16.8.2 33.7.4 50.5l8.5 90.8-41.6-84.5-16.4-50.5-32.8-40.4-39.2-50.7z"/><path id="XMLID_52_" class="st17" d="M488.5 1541.4c1.8-1.5 5.9 2.9 19.1 9.1 4.4 2.1 15.2 7.2 24.9 9.1 6.6 1.3 19.7 2.4 37.3-5.8-1.1 15.8-2.2 31.5-3.3 47.3l10 45.6-5 5.8-39-35.7c-5.6-7.2-13.6-17.9-22.4-31.5-5.5-8.5-26-40.2-21.6-43.9z"/><path id="XMLID_60_" class="st30" d="M320.1 1485.4l130.3 41.6-13-106.2-85.6-15.5z"/><path id="XMLID_58_" class="st17" d="M234.8 1357.3c-3 16.6-7.1 52.2 11.6 68 24.9 21.1 62.8 9.1 145.9-55.6 2.6-2-32.8 21.5-48.9 60.5-9 21.8-9.1 42.4-9.1 45.6 0 13.1 2.3 22.9 3.3 27.4 5.7 24.7 13 61.3 22.4 110.3l-34.8-16.7c-26.7-38.1-48.4-70.8-64.7-96-18.2-28.1-26-41.3-30.7-60.5-8.3-34.1-1.2-64.5 5-83z"/><path id="XMLID_61_" fill="#683a38" d="M509.4 1395.5l-59 131.5-13-106.2z"/><path id="XMLID_66_" class="st17" d="M78.9 1351.6c3.8-2 36.4 15.9 55.3 18.7 16.9 2.6 32.4-7.6 42.1-15.7 16.5-4.4 33.1-8.8 49.6-13.2-7.3 2.5-38.2 14.2-48.8 43-5.1 13.8-4 27.6-3.3 37.2 1.3 17.3 6.1 31 9.9 39.7l29.4 58.7 6.1 28.9H205c-19.4-24-38.9-47.9-58.3-71.9-43.8-99.8-71.8-123.3-67.8-125.4z"/><path id="XMLID_92_" class="st36" d="M-22 1589.9l167 32.6v-8.6l211.8 44 28.5-5.3 107.1 37 13.8 69.1s-31.5 11.8-32.8 9.2c-1.3-2.6-88.1-30.1-88.1-30.1H341l-90.3-34.1-74.7-7.9-12.4 7.9-43.9-7.9-141.7-43.3v-62.6z"/><path id="XMLID_95_" class="st36" d="M523.5 1810.5l179.3 41.2-9.2-100.9c55.8 11.2 120.9 20.4 193.8 23.6 100.5 4.4 188.4-4 259.6-15.7v-68.9c24.9-2.1 52.1-5.6 81.1-11 31.8-5.9 60.7-13.2 86.5-21-2.6 24-5.2 48-7.9 72.1 20.9-2.5 43.3-6.3 66.8-11.8 67.7-15.9 123-41.4 165.1-65.6 24.7-9.3 51-20.5 78.6-34 34.4-16.8 65-34.4 91.7-51.5 35.5-13.3 71-26.7 106.5-40l110.5-51.3v73.1l-110.8 22.4c-26.5 28.3-72.4 70.2-140.3 102.4-59.2 28-113 38.1-149.4 41.9l-221.4 95.1 5.2-71.5-158.5 29.2-4 70.2c-32.8 2.4-67.8 6.2-104.8 12-28.9 4.5-56.3 9.7-82.1 15.4h-159l-90.3-15.4 16.9 89.1-183.4-31.4-20.5-97.7z"/><path id="XMLID_98_" class="st37" d="M-22 1707.6c.3 2.8 135.8 47.9 135.8 47.9l85.9 6.8 11.5 14.2 195.4 26.5 6.3 7.5 107.8 23-11.3-25.4-7.7 5.8-13.8-11-8.1 7.5-12.1-6.3-30.3 1.7-14.6-9.2-9.8 1.2-9.8-1.7-6.3-12.1-14.4-8.1-14.4-1.2-72.6 2.3-88.2-18.4s-6.3-9.8-9.2-10.4c-2.9-.6-30.2-.6-34.4 0-4.2.6-50.9-8.1-50.9-8.1L-22 1695.8v11.8z"/><path id="XMLID_97_" class="st37" d="M717.6 1885.2l10.7 12.5 80.6 20.6 80.6 11.6 169.2 9.6 58.2-8.7c6.1-8.1 12.7-18.3 18.8-30.4 5-9.9 8.7-19.3 11.4-27.6-3.8-2.4-7.6-4.9-11.4-7.3 0 0-9 43-15.2 45.6s-60 10.7-63.5 10.7c-3.6 0-81.3 1-81.3 1l-48.3-9-72.6-7.2-124.4-26.9-12.8 5.5z"/><path id="XMLID_99_" class="st37" d="M1151 1842.8h20l129.3-32.2 8-14.9-16.1-6.1-62.5 21.2H1190l-31.2 10.9z"/><path id="XMLID_105_" class="st37" d="M1303.9 1872.7l195.1-71.6 15.4-38.6-46.8 31.4-159.3 56.4z"/><path id="XMLID_103_" class="st38" d="M1528.4 1728.5c35.2-3.9 90.4-14.4 150.5-45.6 69-35.9 112.8-82.7 136.2-111.7 41.6-8.4 83.3-16.8 124.9-25.2v-16.2l-123.6 24.2c-22 29-67.2 80.4-142 116.4-55.7 26.8-106.5 34.7-139.5 37.2-2.2 7-4.3 14-6.5 20.9z"/><path id="XMLID_106_" class="st38" d="M544 1908.3l57.6 22.8L734 1949s2-16.3 0-16.3c-3 0-153.7-19.8-153.7-19.8l-4.3-15.2v11l-32-6.3v5.9z"/><path id="XMLID_117_" class="st39" d="M1147 1457.1l-5.8 408.4 9.8-18.6 7.8-389.8-7.9-6.9z"/><path id="XMLID_118_" class="st39" d="M1366.7 1405.8s-11.7 37-13.3 44.6c-1.6 7.6-53.2 360.3-53.2 360.3l-1.4 62.1 5-.1 4.5-63.7 63.9-403.2h-5.5z"/><path id="XMLID_116_" class="st39" d="M1505.9 1798l111.2-438.3-9.4-7.1-98.1 412.8z"/><path id="XMLID_120_" class="st39" d="M647.8 1501.1l12.7 75.4 53.6 317.7 3.5-9-50.1-308.7z"/><path id="XMLID_119_" class="st39" d="M455.2 1529l29.8 84.7 47.2 220.1H521z"/><path id="XMLID_121_" class="st39" d="M414.5 1814.3L362 1625.2v27.6l40.5 147.5z"/><path id="XMLID_122_" class="st39" d="M206 1764.8v-11l-96-234.4v16.4z"/><path id="XMLID_124_" class="st29" d="M509.4 1972.1l116.1 49.4 42.4-2.3 259.3 27.4 48.3 8.4 10.4-18.5 238.9-41.9-14.4 19 246.4-32.4-219.6 73.8-171.7 38.5-105.5 21.8-312.2-41.9z"/><path id="XMLID_100_" class="st40" d="M647.8 2073.4l246.5 33.1 122.2 37.3 108.8-43 25.7-16.4 30.4-11.1 227.7-40 34.5-25.8 70.8-24.2 36.1-21.3 84.5-96.5-64 32.3-75.8 74.3-127.3 36.3-12.1-3.7s-197.5 59.1-196.9 56 40.8-34.1 40.8-34.1l-45.5 25L1038 2072l-30.9-2.3-24-19.7 24 38.6-42.4 9.9-42.4-14.1-56.1-7.1-218.4-3.9z"/><path id="XMLID_125_" class="st40" d="M1661 1829.9l21.9-12 34.7-11.1h16.4l5.4-8.8 15.1-5.2s116-72.7 112.3-72.7-177.4 69.4-177.4 69.4l-28.4 40.4z"/></g></svg>